# xmcd
#
# Track frame offsets:
#	182
#	12690
#	24182
#	36940
#	49855
#	62712
#	73785
#	86385
#	97762
#	110752
#	121342
#	130620
#	140927
#	153970
#	171082
#	181790
#	194417
#	204347
#	224200
#	239405
#	251082
#	264677
#	274915
#	285830
#
# Disc length: 3969
#
# Revision: 4
# Processed by: cddbd v1.5.1PL0 Copyright (c) Steve Scherf et al.
# Submitted via: CDex 1.51
# Normalized: r3:DSWAP,DSETVAR1,TDELIM( - )
#
DISCID=660f7f18
DTITLE=Various Artist - Nostalgias CD 5
DYEAR=1995
DGENRE=Oldies
TTITLE0=Bobby Freeman - C'mon and Swin
TTITLE1=Little Anthony and The Imperiales - Goin' out of my head
TTITLE2=Shangai-Las - Leader of the pack
TTITLE3=The Dixie Cups - Chapelof love
TTITLE4=Jay Black - Come a litle bit closer
TTITLE5=Jan And Dean - Litle Old Lady
TTITLE6=Mary Wells - My Guy
TTITLE7=Jay and The Americans - Caramia
TTITLE8=The Turtles - Happy Together
TTITLE9=Sam The Sham and The Pharaons - Wolly Bully
TTITLE10=The Lovin' Spoonful - Do You Believe in Magic
TTITLE11=Sue Thompson - Norman
TTITLE12=Percy Sledge - When man loves a woman
TTITLE13=Melanie - Lay down
TTITLE14=The Exciters - Tell Him
TTITLE15=trini Lopez - Lemon Tree
TTITLE16=The Searchers - needles and pins
TTITLE17=Melanie - Mr. Tambourine man
TTITLE18=The Association - Cherish
TTITLE19=The Troggs - Wild Thing
TTITLE20=Eddie Floyd - Knock on wood
TTITLE21=The Regents - Barbara Ann
TTITLE22=New Vaudille Band - Winchester Cathedral
TTITLE23=The lovin' Spoonful - Summer in the city
EXTD=YEAR: 1995
EXTT0=
EXTT1=
EXTT2=
EXTT3=
EXTT4=
EXTT5=
EXTT6=
EXTT7=
EXTT8=
EXTT9=
EXTT10=
EXTT11=
EXTT12=
EXTT13=
EXTT14=
EXTT15=
EXTT16=
EXTT17=
EXTT18=
EXTT19=
EXTT20=
EXTT21=
EXTT22=
EXTT23=
PLAYORDER=
